<svg xmlns="http://www.w3.org/2000/svg" viewBox="0 0 32 32" width="32" height="32">
  <!-- Book shape with gradient -->
  <defs>
    <linearGradient id="bookGradient" x1="0%" y1="0%" x2="100%" y2="100%">
      <stop offset="0%" style="stop-color:#8B4513;stop-opacity:1" />
      <stop offset="100%" style="stop-color:#D2691E;stop-opacity:1" />
    </linearGradient>
    <linearGradient id="pageGradient" x1="0%" y1="0%" x2="100%" y2="0%">
      <stop offset="0%" style="stop-color:#FFF8DC;stop-opacity:1" />
      <stop offset="100%" style="stop-color:#FAEBD7;stop-opacity:1" />
    </linearGradient>
  </defs>
  
  <!-- Book spine -->
  <rect x="4" y="4" width="4" height="24" rx="1" fill="url(#bookGradient)"/>
  
  <!-- Book cover -->
  <path d="M8 4 L26 4 Q28 4 28 6 L28 26 Q28 28 26 28 L8 28 Z" fill="url(#bookGradient)"/>
  
  <!-- Pages -->
  <rect x="10" y="6" width="16" height="20" rx="0.5" fill="url(#pageGradient)"/>
  
  <!-- Page lines -->
  <line x1="12" y1="10" x2="24" y2="10" stroke="#8B4513" stroke-width="0.5" opacity="0.5"/>
  <line x1="12" y1="13" x2="24" y2="13" stroke="#8B4513" stroke-width="0.5" opacity="0.5"/>
  <line x1="12" y1="16" x2="24" y2="16" stroke="#8B4513" stroke-width="0.5" opacity="0.5"/>
  <line x1="12" y1="19" x2="20" y2="19" stroke="#8B4513" stroke-width="0.5" opacity="0.5"/>
  
  <!-- Bookmark ribbon -->
  <path d="M22 4 L22 18 L20 16 L18 18 L18 4 Z" fill="#DC143C" opacity="0.9"/>
</svg>